<?xml version="1.0" encoding="UTF-8"?>
<!-- Generated by jsxcad -->
<!DOCTYPE svg PUBLIC "-//W3C//DTD SVG 1.1 Tiny//EN" "http://www.w3.org/Graphics/SVG/1.1/DTD/svg11-tiny.dtd">
<svg baseProfile="tiny" height="48.71776522190572mm" width="50.00000000000003mm" viewBox="-25.000000000000014 -36.94754525574666 50.00000000000003 48.71776522190572" version="1.1" stroke="black" stroke-width=".1" fill="none" xmlns="http://www.w3.org/2000/svg">
<path fill="#000000" stroke="#000000" d="M9.728567991415451 15.984787415093251 L10.009956589871736 15.760033525021136 L14.034478006603376 12.545522172922098 L14.034478006603377 11.132324203378952 L10.110569625290026 14.266472771675513 L9.72856799141545 14.571589445550103 L9.003826235688827 15.150463393502749 L9.003826235688825 16.563661363045895 z"/>
<path fill="#000000" stroke="#000000" d="M-12.56900184805015 0.8466154696657937 L-15.389427806202924 4.649244160304326 L-15.389427806202924 3.2360461907611793 L-12.639512497003967 -0.4715167826113897 L-11.863895358511954 -1.5172396725369854 L-11.863895358511956 -0.1040417029938387 z"/>
<path fill="#000000" stroke="#000000" d="M-4.18654991044275 17.943385043342275 L-4.114288691289974 17.949593721592116 L1.9105063820468735 18.467243639073992 L1.9105063820468735 17.054045669530844 L-3.9636688144565526 16.549336999986014 L-4.18654991044275 16.530187073799127 L-5.620487459624186 16.4069832726785 L-5.620487459624186 17.820181242221647 z"/>
<path fill="#000000" stroke="#000000" d="M15.486895601320676 6.290895565415586 L14.034478006603377 2.1211444937445765 L14.034478006603377 0.7079465242014297 L15.450585161452741 4.773453819080664 L15.85 5.920135363790191 L15.85 7.333333333333339 z"/>
<path fill="#000000" stroke="#000000" d="M13.028347652420468 1.3175166557198152 L10.901858610246357 -0.38097676955164556 L9.003826235688818 -1.8969946963792237 L9.00382623568882 -3.3101926659223713 L10.901858610246355 -1.7941747390947913 L12.927734617002177 -0.17604409762580583 L14.03447800660338 0.7079465242014298 L14.034478006603377 2.1211444937445774 z"/>
<path fill="#000000" stroke="#000000" d="M-6.994037197379497 -3.895828513134671 L-5.620487459624189 -4.566712545098119 L-5.620487459624189 -3.1535145755549734 L-6.869169039401742 -2.5436200010427474 L-11.863895358511952 -0.10404170299384215 L-11.863895358511952 -1.5172396725369888 z"/>
<path fill="#000000" stroke="#000000" d="M14.433892845150634 9.985642658669423 L14.034478006603377 11.132324203378952 L14.034478006603377 12.545522172922098 L14.397582405282702 11.503084405004346 L15.849999999999998 7.3333333333333375 L15.849999999999998 5.920135363790191 z"/>
<path fill="#000000" stroke="#000000" d="M7.443295867887588 -3.7289807666485526 L9.003826235688816 -3.310192665922372 L9.003826235688816 -1.8969946963792264 L7.585162264960427 -2.2777111515848447 L1.9105063820468688 -3.800576972407318 L1.9105063820468688 -5.213774941950464 z"/>
<path fill="#000000" stroke="#000000" d="M-5.620487459624189 -3.1535145755549774 L-5.620487459624189 -4.566712545098124 L0.253687736879236 -5.071421214642952 L1.9105063820468686 -5.213774941950469 L1.9105063820468686 -3.800576972407322 L0.40430761371265717 -3.671164493036853 z"/>
<path fill="#000000" stroke="#000000" d="M-15.389427806202924 10.017422506362356 L-15.389427806202924 8.60422453681921 L-15.389427806202924 4.417045426893946 L-15.389427806202924 3.2360461907611793 L-15.389427806202924 4.649244160304326 L-15.389427806202924 5.722879829515932 z"/>
<path fill="#000000" stroke="#000000" d="M-11.863895358511948 14.77070836966052 L-11.863895358511947 13.357510400117373 L-14.613810667710908 9.649947426744804 L-15.389427806202923 8.604224536819208 L-15.389427806202923 10.017422506362356 L-14.684321316664727 10.968079679021988 z"/>
<path fill="#000000" stroke="#000000" d="M1.9105063820468735 17.054045669530847 L1.9105063820468735 18.467243639073992 L3.329170352775264 18.08652718386837 L9.003826235688827 16.56366136304589 L9.003826235688827 15.150463393502749 L3.4710367498481034 16.635257568804665 z"/>
<path fill="#000000" stroke="#000000" d="M-11.063184756112975 15.16180010999399 L-10.615213778734395 15.380602944172747 L-5.620487459624186 17.820181242221647 L-5.620487459624186 16.4069832726785 L-10.49034562075664 14.02839443208082 L-11.063184756112975 13.74860214045084 L-11.863895358511948 13.357510400117372 L-11.863895358511948 14.77070836966052 z"/>
<path fill="#000000" stroke="#000000" d="M23.09698831278217 0.5635274359103043 L25 7.3333333333333375 L25 5.920135363790191 L23.09698831278217 -0.849670533632843 z"/>
<path fill="#000000" stroke="#000000" d="M17.677669529663685 -5.175636882073351 L23.096988312782173 0.5635274359103039 L23.09698831278217 -0.8496705336328423 L17.67766952966369 -6.588834851616497 z"/>
<path fill="#000000" stroke="#000000" d="M24.999999999999996 7.3333333333333375 L23.096988312782162 14.103139230756382 L23.096988312782162 12.689941261213235 L24.999999999999996 5.920135363790191 z"/>
<path fill="#000000" stroke="#000000" d="M9.567085809127242 -9.010423878858713 L17.67766952966368 -5.175636882073351 L17.67766952966368 -6.588834851616504 L9.567085809127242 -10.423621848401865 z"/>
<path fill="#000000" stroke="#000000" d="M0 -10.357021996615902 L9.567085809127242 -9.010423878858717 L9.567085809127242 -10.423621848401867 L0 -11.770219966159052 z"/>
<path fill="#000000" stroke="#000000" d="M-9.567085809127242 -9.010423878858717 L0 -10.357021996615902 L0 -11.770219966159052 L-9.567085809127242 -10.423621848401867 z"/>
<path fill="#000000" stroke="#000000" d="M-17.67766952966368 -5.175636882073351 L-9.567085809127242 -9.010423878858713 L-9.567085809127242 -10.423621848401865 L-17.67766952966368 -6.588834851616504 z"/>
<path fill="#000000" stroke="#000000" d="M-23.096988312782173 0.5635274359103039 L-17.677669529663685 -5.175636882073351 L-17.67766952966369 -6.588834851616497 L-23.09698831278217 -0.8496705336328423 z"/>
<path fill="#000000" stroke="#000000" d="M-25 7.3333333333333375 L-23.09698831278217 0.5635274359103043 L-23.09698831278217 -0.849670533632843 L-25 5.920135363790191 z"/>
<path fill="#000000" stroke="#000000" d="M-23.09698831278217 14.103139230756373 L-24.999999999999996 7.333333333333338 L-24.999999999999996 5.920135363790191 L-23.09698831278217 12.689941261213225 z"/>
<path fill="#000000" stroke="#000000" d="M-17.677669529663685 19.842303548740027 L-23.096988312782166 14.103139230756373 L-23.09698831278217 12.689941261213226 L-17.67766952966369 18.42910557919688 z"/>
<path fill="#000000" stroke="#000000" d="M-9.567085809127246 23.677090545525388 L-17.677669529663685 19.842303548740023 L-17.677669529663685 18.42910557919688 L-9.567085809127246 22.263892575982243 z"/>
<path fill="#000000" stroke="#000000" d="M-3.0616169978683826e-15 25.023688663282574 L-9.567085809127246 23.677090545525388 L-9.567085809127246 22.263892575982243 L-3.0616169978683826e-15 23.61049069373943 z"/>
<path fill="#000000" stroke="#000000" d="M9.56708580912724 23.67709054552539 L-3.0616169978683826e-15 25.023688663282577 L-3.0616169978683826e-15 23.61049069373943 L9.56708580912724 22.263892575982243 z"/>
<path fill="#000000" stroke="#000000" d="M23.09698831278216 14.103139230756383 L17.67766952966368 19.84230354874003 L17.677669529663685 18.429105579196882 L23.09698831278216 12.689941261213237 z"/>
<path fill="#000000" stroke="#000000" d="M17.67766952966368 19.84230354874003 L9.56708580912724 23.677090545525388 L9.56708580912724 22.263892575982243 L17.67766952966368 18.429105579196882 z"/>
<path fill="#000000" stroke="#000000" d="M23.09698831278217 -0.8496705336328426 L25 5.920135363790191 L23.096988312782162 12.689941261213235 L17.677669529663685 18.429105579196886 L9.567085809127242 22.263892575982243 L-3.061616997868383e-15 23.61049069373943 L-9.567085809127247 22.263892575982243 L-17.67766952966369 18.42910557919688 L-23.09698831278217 12.689941261213226 L-25 5.920135363790191 L-23.09698831278217 -0.8496705336328426 L-17.677669529663685 -6.588834851616497 L-9.567085809127244 -10.423621848401858 L0 -11.770219966159043 L9.567085809127244 -10.423621848401858 L17.677669529663685 -6.588834851616497 M-15.389427806202924 3.236046190761179 L-15.389427806202924 4.417045426893945 L-15.389427806202924 8.604224536819208 L-14.61381066771091 9.649947426744804 L-11.86389535851195 13.357510400117372 L-11.063184756112976 13.748602140450842 L-10.490345620756642 14.028394432080821 L-5.6204874596241865 16.406983272678502 L-4.186549910442751 16.530187073799127 L-3.963668814456553 16.549336999986018 L1.9105063820468737 17.054045669530847 L3.4710367498481034 16.63525756880466 L9.003826235688829 15.15046339350275 L9.728567991415451 14.571589445550105 L10.11056962529003 14.266472771675511 L14.03447800660338 11.132324203378952 L14.433892845150634 9.985642658669425 L15.85 5.920135363790191 L15.450585161452741 4.773453819080664 L14.034478006603377 0.7079465242014297 L12.927734617002173 -0.17604409762580622 L10.901858610246354 -1.7941747390947929 L9.003826235688818 -3.31019266592237 L7.4432958678875885 -3.7289807666485504 L1.910506382046869 -5.213774941950462 L0.253687736879236 -5.071421214642945 L-5.62048745962419 -4.566712545098117 L-6.994037197379497 -3.895828513134668 L-11.863895358511954 -1.517239672536986 L-12.639512497003967 -0.47151678261138974 z"/>
<path fill="#000000" stroke="#000000" d="M25 7.333333333333338 L23.09698831278217 0.5635274359103042 L17.677669529663685 -5.17563688207335 L9.567085809127244 -9.010423878858711 L0 -10.357021996615897 L-9.567085809127244 -9.010423878858711 L-17.677669529663685 -5.17563688207335 L-23.09698831278217 0.5635274359103042 L-25 7.333333333333338 L-23.09698831278217 14.103139230756373 L-17.67766952966369 19.842303548740027 L-9.567085809127247 23.677090545525388 L-3.061616997868383e-15 25.023688663282577 L9.567085809127242 23.677090545525388 L17.677669529663685 19.84230354874003 L23.096988312782162 14.103139230756382 M-15.389427806202924 5.722879829515932 L-15.389427806202924 4.649244160304326 L-12.569001848050148 0.8466154696657939 L-11.863895358511954 -0.10404170299383894 L-6.869169039401743 -2.543620001042744 L-5.62048745962419 -3.15351457555497 L0.4043076137126572 -3.6711644930368457 L1.910506382046869 -3.8005769724073146 L7.585162264960427 -2.277711151584841 L9.003826235688818 -1.8969946963792226 L10.901858610246354 -0.3809767695516457 L13.028347652420464 1.3175166557198168 L14.034478006603377 2.1211444937445765 L15.486895601320674 6.290895565415586 L15.85 7.333333333333338 L14.397582405282703 11.503084405004346 L14.03447800660338 12.5455221729221 L10.009956589871738 15.760033525021136 L9.728567991415451 15.98478741509325 L9.003826235688829 16.563661363045895 L3.3291703527752645 18.086527183868373 L1.9105063820468737 18.467243639073992 L-4.114288691289974 17.949593721592116 L-4.186549910442751 17.943385043342275 L-5.6204874596241865 17.82018124222165 L-10.615213778734397 15.380602944172745 L-11.063184756112976 15.161800109993989 L-11.86389535851195 14.77070836966052 L-14.684321316664729 10.968079679021988 L-15.389427806202924 10.017422506362355 z"/>
<path fill="#000000" stroke="#000000" d="M13.205605381498488 13.207568708882045 L10.009956589871738 15.760033525021138 L9.003826235688827 16.563661363045895 L9.003826235688829 30.695641058477367 L11.866140411860323 28.4094210437633 L14.034478006603377 26.67750186835357 L14.034478006603377 12.545522172922098 z"/>
<path fill="#000000" stroke="#000000" d="M15.679793091673771 7.821980979148478 L14.397582405282702 11.503084405004346 L14.034478006603377 12.545522172922098 L14.034478006603377 26.67750186835357 L15.314595994741584 23.002406377690924 L15.849999999999998 21.46531302876481 L15.849999999999998 7.333333333333338 z"/>
<path fill="#000000" stroke="#000000" d="M-14.719507352297464 3.7460264278541073 L-12.569001848050148 0.8466154696657944 L-11.863895358511956 -0.10404170299383934 L-11.863895358511954 14.027937992437632 L-13.463500171764268 16.184599165894056 L-15.389427806202926 18.781223855735796 L-15.389427806202924 4.649244160304326 z"/>
<path fill="#000000" stroke="#000000" d="M14.034478006603377 2.121144493744577 L14.11670768068847 2.3572179707436027 L15.486895601320674 6.290895565415586 L15.85 7.333333333333338 L15.85 21.465313028764808 L14.448423024561642 17.441520479968922 L14.034478006603376 16.253124189176045 z"/>
<path fill="#000000" stroke="#000000" d="M9.003826235688818 12.23498499905225 L9.00382623568882 -1.8969946963792226 L13.028347652420468 1.3175166557198164 L14.034478006603381 2.121144493744576 L14.03447800660338 16.253124189176045 L9.911960994384721 12.960340684557435 z"/>
<path fill="#000000" stroke="#000000" d="M7.585162264960427 -2.2777111515848487 L8.906231943322911 -1.923185361543421 L9.003826235688816 -1.8969946963792303 L9.003826235688816 12.23498499905224 L2.7869798320068355 10.566615480827021 L1.9105063820468688 10.33140272302415 L1.9105063820468688 -3.800576972407322 z"/>
<path fill="#000000" stroke="#000000" d="M0.40430761371265717 -3.671164493036853 L0.6833200535854952 -3.6951372198629953 L1.9105063820468686 -3.800576972407322 L1.9105063820468686 10.33140272302415 L-5.432546436817672 10.962317242021228 L-5.620487459624189 10.978465119876494 L-5.620487459624189 -3.153514575554977 z"/>
<path fill="#000000" stroke="#000000" d="M-5.620487459624189 10.97846511987649 L-11.863895358511952 14.027937992437623 L-11.863895358511952 -0.10404170299384467 L-9.662421174928069 -1.1793095552958976 L-6.869169039401742 -2.5436200010427497 L-5.620487459624189 -3.1535145755549756 z"/>
<path fill="#000000" stroke="#000000" d="M-15.389427806202924 9.141203586832113 L-15.389427806202924 8.002593999350207 L-15.389427806202924 6.545432446761637 L-15.389427806202924 5.722879829515932 L-15.389427806202924 4.649244160304326 L-15.389427806202924 18.781223855735796 L-15.389427806202924 22.596133851119163 L-15.389427806202924 24.149402201793826 L-15.389427806202924 10.017422506362356 z"/>
<path fill="#000000" stroke="#000000" d="M-14.684321316664727 10.968079679021988 L-15.308395998480131 10.12667333636918 L-15.389427806202923 10.017422506362355 L-15.38942780620292 24.149402201793826 L-14.491523258786213 25.35999863088705 L-13.615209528436532 26.541485322071328 L-12.905560652851484 27.498266749635004 L-12.268895948516127 28.356647542800072 L-11.86389535851195 28.90268806509199 L-11.863895358511948 14.77070836966052 L-11.990971243315258 14.599378785898702 L-13.551920239383112 12.49483517257918 L-14.554618811080784 11.142950594372746 z"/>
<path fill="#000000" stroke="#000000" d="M6.761833262608871 17.16532859004163 L3.329170352775264 18.086527183868373 L1.9105063820468733 18.467243639073992 L1.9105063820468733 32.59922333450546 L3.421122580705145 32.193830333628675 L9.003826235688827 30.695641058477367 L9.003826235688827 16.563661363045895 z"/>
<path fill="#000000" stroke="#000000" d="M-11.863895358511947 28.902688065091986 L-11.378703194802197 29.139670874028063 L-9.604471638396731 30.006260257346145 L-6.660885126899145 31.443998646415334 L-5.620487459624186 31.952160937653115 L-5.620487459624186 17.820181242221647 L-10.615213778734397 15.380602944172745 L-11.863895358511947 14.77070836966052 z"/>
<path fill="#000000" stroke="#000000" d="M-5.620487459624186 31.952160937653115 L1.9105063820468735 32.59922333450545 L1.9105063820468735 18.467243639073992 L-3.704318442692972 17.984818333014246 L-4.114288691289974 17.949593721592116 L-5.620487459624186 17.820181242221647 z"/>
<path fill="#000000" stroke="#000000" d="M-11.125000000000018 20.96839776809477 L-11.000000000000016 34.94717449234915 L-17.798373876248846 30.615667403031587 z"/>
<path fill="#000000" stroke="#000000" d="M6.875628124842581 -7.64049633045784 L14.72087333989488 9.896396527373579 L14.888155991484592 -4.367048128300972 z"/>
<path fill="#000000" stroke="#000000" d="M-21.763784116327173 4.059885131176465 L-17.79837387624884 12.314958654498023 L-18.000628124842574 -1.9210023406410257 z"/>
<path fill="#000000" stroke="#000000" d="M-2.3257583077053052 22.99150001743996 L-2.2996261918883913 36.94754525574664 L-11.000000000000016 34.94717449234915 z"/>
<path fill="#000000" stroke="#000000" d="M-10.999999999999998 7.983451565180462 L-11.124999999999998 -6.301731101428102 L-18.000628124842578 -1.9210023406410257 z"/>
<path fill="#000000" stroke="#000000" d="M-11.125000000000016 20.96839776809477 L-2.3257583077053052 22.99150001743996 L-11.000000000000016 34.94717449234915 z"/>
<path fill="#000000" stroke="#000000" d="M-17.798373876248846 12.314958654498021 L-11.000000000000004 7.983451565180461 L-18.000628124842574 -1.9210023406410255 z"/>
<path fill="#000000" stroke="#000000" d="M14.720873339894878 9.896396527373579 L6.8756281248425815 -7.6404963304578395 L6.798373876248844 6.659728642094879 z"/>
<path fill="#000000" stroke="#000000" d="M-2.3257583077052866 -8.324833350773282 L-2.299626191888373 5.98308080178298 L6.8756281248425815 -7.640496330457841 z"/>
<path fill="#000000" stroke="#000000" d="M-21.519247216143725 24.701980914043506 L-21.763784116327173 4.059885131176466 L-21.763784116327177 10.606781535490201 z"/>
<path fill="#000000" stroke="#000000" d="M-10.999999999999995 7.983451565180462 L-2.299626191888373 5.983080801782979 L-11.124999999999995 -6.301731101428102 z"/>
<path fill="#000000" stroke="#000000" d="M-21.763784116327173 4.059885131176465 L-21.51924721614372 18.2286451434861 L-17.79837387624884 12.314958654498023 z"/>
<path fill="#000000" stroke="#000000" d="M-21.51924721614372 18.2286451434861 L-21.763784116327173 4.059885131176465 L-21.519247216143725 24.701980914043503 z"/>
<path fill="#000000" stroke="#000000" d="M20.32638643254786 13.737164343465611 L14.720873339894874 33.03422953015604 L14.888155991484586 19.033714794967654 z"/>
<path fill="#000000" stroke="#000000" d="M-21.519247216143725 24.701980914043503 L-21.763784116327173 10.606781535490201 L-17.79837387624885 30.615667403031583 z"/>
<path fill="#000000" stroke="#000000" d="M20.32638643254786 13.737164343465611 L22 21.465313028764808 L20.09800006813721 27.797190881479867 z"/>
<path fill="#000000" stroke="#000000" d="M14.720873339894872 33.03422953015604 L20.32638643254786 13.737164343465611 L20.098000068137207 27.797190881479867 z"/>
<path fill="#000000" stroke="#000000" d="M14.720873339894874 33.03422953015605 L20.09800006813721 27.797190881479867 L22 21.465313028764808 L20.098000068137218 15.133435176049764 L14.720873339894881 9.896396527373579 L6.798373876248845 6.659728642094879 L-2.2996261918883736 5.983080801782979 L-10.999999999999996 7.983451565180462 L-17.79837387624884 12.314958654498021 L-21.51924721614372 18.2286451434861 L-21.519247216143725 24.701980914043503 L-17.79837387624885 30.615667403031587 L-11.000000000000018 34.94717449234915 L-2.299626191888392 36.94754525574664 L6.7983738762488315 36.27089741543474 M-15.389427806202924 24.149402201793823 L-15.389427806202924 22.596133851119163 L-15.389427806202924 18.781223855735796 L-13.463500171764265 16.184599165894056 L-11.863895358511954 14.027937992437632 L-5.62048745962419 10.9784651198765 L-5.432546436817672 10.962317242021234 L1.910506382046869 10.331402723024155 L2.786979832006836 10.566615480827027 L9.003826235688818 12.234984999052248 L9.911960994384717 12.960340684557435 L14.034478006603377 16.253124189176045 L14.448423024561642 17.441520479968922 L15.85 21.465313028764808 L15.314595994741584 23.002406377690924 L14.03447800660338 26.67750186835357 L11.866140411860323 28.409421043763302 L9.003826235688829 30.695641058477364 L3.4211225807051453 32.193830333628675 L1.9105063820468737 32.59922333450546 L-5.6204874596241865 31.95216093765312 L-6.660885126899146 31.443998646415338 L-9.604471638396733 30.00626025734615 L-11.378703194802197 29.13967087402807 L-11.86389535851195 28.90268806509199 L-12.268895948516128 28.356647542800076 L-12.905560652851484 27.498266749635004 L-13.615209528436532 26.54148532207133 L-14.491523258786213 25.359998630887052 z"/>
<path fill="#000000" stroke="#000000" d="M22.249999999999996 7.3333333333333375 L21.999999999999996 21.465313028764808 L20.32638643254786 13.73716434346561 z"/>
<path fill="#000000" stroke="#000000" d="M22 21.465313028764808 L22.25 7.333333333333338 L20.32638643254787 0.929502323201078 z"/>
<path fill="#000000" stroke="#000000" d="M20.098000068137218 15.133435176049764 L22 21.465313028764808 L20.32638643254787 0.929502323201078 z"/>
<path fill="#000000" stroke="#000000" d="M-21.763784116327177 10.606781535490201 L-18.00062812484258 16.587669007307692 L-17.798373876248846 30.615667403031587 z"/>
<path fill="#000000" stroke="#000000" d="M14.720873339894883 9.89639652737358 L20.32638643254787 0.9295023232010778 L14.888155991484597 -4.367048128300971 z"/>
<path fill="#000000" stroke="#000000" d="M14.72087333989487 33.03422953015605 L6.875628124842567 22.30716299712452 L14.888155991484584 19.033714794967654 z"/>
<path fill="#000000" stroke="#000000" d="M6.8756281248425815 -7.640496330457841 L-2.299626191888373 5.983080801782979 L6.798373876248844 6.659728642094879 z"/>
<path fill="#000000" stroke="#000000" d="M-18.00062812484258 16.587669007307692 L-11.125000000000018 20.96839776809477 L-17.798373876248846 30.615667403031587 z"/>
<path fill="#000000" stroke="#000000" d="M6.798373876248831 36.27089741543474 L-2.3257583077053052 22.99150001743996 L6.875628124842567 22.30716299712452 z"/>
<path fill="#000000" stroke="#000000" d="M20.098000068137218 15.133435176049762 L20.32638643254787 0.9295023232010778 L14.72087333989488 9.896396527373579 z"/>
<path fill="#000000" stroke="#000000" d="M14.888155991484595 -4.367048128300971 L20.32638643254787 0.929502323201078 L22.25 7.333333333333338 L20.326386432547864 13.737164343465611 L14.888155991484588 19.033714794967654 L6.875628124842568 22.30716299712452 L-2.3257583077053057 22.99150001743996 L-11.125000000000018 20.968397768094775 L-18.000628124842585 16.587669007307692 L-21.763784116327177 10.606781535490201 L-21.763784116327173 4.059885131176466 L-18.000628124842574 -1.9210023406410257 L-11.124999999999996 -6.3017311014281026 L-2.325758307705287 -8.324833350773282 L6.875628124842582 -7.640496330457841 M-15.389427806202924 4.649244160304326 L-15.389427806202924 5.722879829515932 L-15.389427806202924 6.5454324467616365 L-15.389427806202924 8.002593999350205 L-15.389427806202924 9.141203586832113 L-15.389427806202924 10.017422506362355 L-15.308395998480133 10.126673336369182 L-14.684321316664729 10.968079679021988 L-14.554618811080784 11.142950594372746 L-13.551920239383112 12.494835172579178 L-11.990971243315258 14.599378785898702 L-11.86389535851195 14.77070836966052 L-10.615213778734397 15.380602944172745 L-5.6204874596241865 17.820181242221647 L-4.114288691289974 17.94959372159212 L-3.704318442692972 17.98481833301425 L1.9105063820468737 18.467243639073992 L3.3291703527752645 18.086527183868373 L6.761833262608872 17.16532859004163 L9.003826235688829 16.563661363045895 L10.009956589871738 15.760033525021136 L13.205605381498488 13.207568708882045 L14.03447800660338 12.5455221729221 L14.397582405282703 11.503084405004346 L15.679793091673771 7.821980979148479 L15.85 7.333333333333338 L15.486895601320674 6.290895565415586 L14.116707680688469 2.3572179707436027 L14.034478006603377 2.1211444937445765 L13.028347652420464 1.3175166557198168 L9.003826235688818 -1.896994696379223 L8.906231943322911 -1.9231853615434131 L7.585162264960427 -2.277711151584841 L1.910506382046869 -3.8005769724073146 L0.6833200535854952 -3.695137219862988 L0.4043076137126572 -3.6711644930368457 L-5.62048745962419 -3.1535145755549694 L-6.869169039401743 -2.5436200010427434 L-9.66242117492807 -1.1793095552958912 L-11.863895358511954 -0.10404170299383896 L-12.569001848050148 0.846615469665794 L-14.719507352297464 3.746026427854107 z"/>
<path fill="#000000" stroke="#000000" d="M14.720873339894872 33.03422953015604 L6.798373876248831 36.270897415434746 L6.875628124842566 22.307162997124525 z"/>
<path fill="#000000" stroke="#000000" d="M-2.299626191888373 5.983080801782979 L-2.3257583077052866 -8.324833350773282 L-11.124999999999995 -6.3017311014281026 z"/>
<path fill="#000000" stroke="#000000" d="M6.798373876248831 36.27089741543474 L-2.2996261918883913 36.94754525574664 L-2.3257583077053052 22.99150001743996 z"/>
</svg>