<?xml version="1.0" encoding="UTF-8"?>
<!-- Generated by jsxcad -->
<!DOCTYPE svg PUBLIC "-//W3C//DTD SVG 1.1 Tiny//EN" "http://www.w3.org/Graphics/SVG/1.1/DTD/svg11-tiny.dtd">
<svg baseProfile="tiny" height="48.467881173142956mm" width="50.00000000000003mm" viewBox="-25.000000000000014 -36.96641745445829 50.00000000000003 48.467881173142956" version="1.1" stroke="black" stroke-width=".1" fill="none" xmlns="http://www.w3.org/2000/svg">
<path fill="#000000" stroke="#000000" d="M4.925135245583303 16.37816406419215 L3.5269568032075673 16.854619996717187 L3.5269568032075673 18.26781796626033 L4.798028114458236 17.83467620941939 L9.88231335946091 16.102109182055614 L9.88231335946091 14.688911212512469 z"/>
<path fill="#000000" stroke="#000000" d="M10.849882862755244 13.830367288247517 L9.88231335946091 14.688911212512469 L9.88231335946091 16.102109182055614 L10.761921998819396 15.321614705451115 L14.280356556253334 12.199636799033113 L14.280356556253333 10.786438829489965 z"/>
<path fill="#000000" stroke="#000000" d="M14.634274736059103 2.1510704281682806 L15.504678442375734 4.849548601336243 L15.85 5.920135363790192 L15.85 7.333333333333338 L15.536071311250668 6.360072640193386 L14.634274736059101 3.564268397711428 L14.280356556253343 2.467029867633575 L14.280356556253343 1.053831898090428 z"/>
<path fill="#000000" stroke="#000000" d="M14.625678113877601 9.715852067036016 L14.280356556253334 10.786438829489965 L14.280356556253334 12.199636799033113 L14.594285245002668 11.226376105893157 L15.849999999999998 7.333333333333338 L15.849999999999998 5.920135363790191 z"/>
<path fill="#000000" stroke="#000000" d="M-14.634274736059103 9.689200299412096 L-15.504678442375734 6.990722126244137 L-15.849999999999998 5.920135363790189 L-15.849999999999998 7.333333333333336 L-15.536071311250668 8.306594026473288 L-14.634274736059103 11.102398268955243 L-14.280356556253343 12.199636799033103 L-14.280356556253341 10.786438829489954 z"/>
<path fill="#000000" stroke="#000000" d="M13.40074791689486 1.6865353910290757 L12.945827649822688 1.2828754679020928 L9.882313359460925 -1.4354425153889288 L9.882313359460925 -2.8486404849320763 L12.94582764982269 -0.13032250164105622 L13.312787052959012 0.19528797382547666 L14.280356556253343 1.053831898090429 L14.280356556253343 2.4670298676335767 z"/>
<path fill="#000000" stroke="#000000" d="M8.484134917085187 -3.3250964174571176 L9.882313359460923 -2.848640484932078 L9.882313359460923 -1.435442515388933 L8.611242048210256 -1.8685842722298776 L3.5269568032075838 -3.6011512995936554 L3.5269568032075838 -5.0143492691368 z"/>
<path fill="#000000" stroke="#000000" d="M-3.526956803207581 -3.6011512995936523 L-3.526956803207581 -5.0143492691368055 L1.9750958097962477 -5.0143492691368055 L3.526956803207584 -5.0143492691368055 L3.526956803207584 -3.6011512995936523 L2.116174081924551 -3.6011512995936523 z"/>
<path fill="#000000" stroke="#000000" d="M-9.882313359460921 -1.4354425153889332 L-9.882313359460921 -2.8486404849320786 L-4.9251352455833155 -4.537893336611761 L-3.52695680320758 -5.0143492691368 L-3.52695680320758 -3.6011512995936545 L-4.798028114458249 -3.1680095427527104 z"/>
<path fill="#000000" stroke="#000000" d="M-10.761921998819409 -0.6549480387844284 L-12.94582764982269 1.2828754679020915 L-14.280356556253343 2.467029867633573 L-14.280356556253341 1.0538318980904267 L-12.945827649822688 -0.13032250164105377 L-10.849882862755257 -1.990096560667127 L-9.882313359460925 -2.8486404849320763 L-9.882313359460925 -1.4354425153889312 z"/>
<path fill="#000000" stroke="#000000" d="M-15.85 7.333333333333336 L-15.85 5.920135363790189 L-14.625678113877607 2.124418660544374 L-14.280356556253341 1.0538318980904262 L-14.280356556253341 2.467029867633573 L-14.594285245002672 3.440290560773526 z"/>
<path fill="#000000" stroke="#000000" d="M-13.312787052959012 11.644982753754904 L-14.280356556253341 10.786438829489954 L-14.280356556253341 12.199636799033103 L-13.400747916894858 12.980131275637602 L-9.88231335946093 16.102109182055603 L-9.882313359460928 14.688911212512457 z"/>
<path fill="#000000" stroke="#000000" d="M-8.484134917085195 15.165367145037493 L-9.88231335946093 14.688911212512453 L-9.88231335946093 16.102109182055603 L-8.611242048210261 16.53525093889655 L-3.5269568032075913 18.267817966260328 L-3.5269568032075913 16.854619996717176 z"/>
<path fill="#000000" stroke="#000000" d="M3.5269568032075673 18.26781796626033 L3.5269568032075673 16.854619996717187 L-1.9750958097962565 16.854619996717183 L-3.5269568032075913 16.85461999671718 L-3.5269568032075913 18.267817966260324 L-2.116174081924559 18.267817966260328 z"/>
<path fill="#000000" stroke="#000000" d="M24.999999999999996 7.333333333333338 L23.492315519647708 13.38379119876458 L23.492315519647708 11.970593229221434 L24.999999999999996 5.92013536379019 z"/>
<path fill="#000000" stroke="#000000" d="M23.492315519647708 1.282875467902092 L25 7.333333333333338 L24.999999999999996 5.920135363790191 L23.492315519647708 -0.1303225016410551 z"/>
<path fill="#000000" stroke="#000000" d="M19.151111077974452 -4.037807883710261 L23.492315519647708 1.282875467902092 L23.492315519647708 -0.1303225016410555 L19.151111077974452 -5.45100585325341 z"/>
<path fill="#000000" stroke="#000000" d="M12.500000000000007 -7.986963784376146 L19.15111107797446 -4.037807883710261 L19.151111077974456 -5.45100585325341 L12.500000000000004 -9.400161753919292 z"/>
<path fill="#000000" stroke="#000000" d="M4.341204441673259 -10.08826574914151 L12.499999999999998 -7.986963784376147 L12.499999999999998 -9.400161753919296 L4.341204441673259 -11.501463718684658 z"/>
<path fill="#000000" stroke="#000000" d="M-4.3412044416732565 -10.088265749141515 L4.34120444167326 -10.088265749141515 L4.34120444167326 -11.501463718684656 L-4.3412044416732565 -11.501463718684656 z"/>
<path fill="#000000" stroke="#000000" d="M-12.499999999999995 -7.986963784376147 L-4.341204441673256 -10.088265749141506 L-4.341204441673256 -11.501463718684656 L-12.499999999999995 -9.400161753919297 z"/>
<path fill="#000000" stroke="#000000" d="M-19.15111107797445 -4.037807883710263 L-12.5 -7.986963784376146 L-12.499999999999996 -9.400161753919294 L-19.15111107797445 -5.451005853253407 z"/>
<path fill="#000000" stroke="#000000" d="M-23.492315519647708 1.2828754679020915 L-19.15111107797445 -4.037807883710262 L-19.15111107797445 -5.4510058532534105 L-23.492315519647708 -0.13032250164105436 z"/>
<path fill="#000000" stroke="#000000" d="M-25 7.333333333333334 L-23.492315519647708 1.282875467902092 L-23.492315519647708 -0.13032250164105508 L-25 5.9201353637901875 z"/>
<path fill="#000000" stroke="#000000" d="M-23.492315519647708 13.38379119876458 L-24.999999999999996 7.333333333333334 L-24.999999999999996 5.920135363790187 L-23.492315519647708 11.970593229221432 z"/>
<path fill="#000000" stroke="#000000" d="M-19.151111077974456 18.704474550376933 L-23.492315519647708 13.383791198764579 L-23.492315519647708 11.970593229221432 L-19.151111077974456 17.291276580833784 z"/>
<path fill="#000000" stroke="#000000" d="M-12.500000000000007 22.65363045104282 L-19.15111107797446 18.704474550376933 L-19.151111077974456 17.291276580833784 L-12.500000000000007 21.24043248149967 z"/>
<path fill="#000000" stroke="#000000" d="M-4.341204441673267 24.754932415808184 L-12.500000000000007 22.65363045104282 L-12.500000000000007 21.24043248149967 L-4.341204441673267 23.341734446265036 z"/>
<path fill="#000000" stroke="#000000" d="M4.341204441673262 24.75493241580818 L-4.341204441673268 24.75493241580818 L-4.341204441673268 23.341734446265036 L4.341204441673262 23.341734446265036 z"/>
<path fill="#000000" stroke="#000000" d="M23.492315519647708 13.38379119876458 L19.151111077974463 18.70447455037693 L19.15111107797446 17.291276580833784 L23.492315519647708 11.970593229221434 z"/>
<path fill="#000000" stroke="#000000" d="M12.500000000000002 22.653630451042822 L4.341204441673261 24.754932415808184 L4.341204441673261 23.341734446265036 L12.500000000000002 21.240432481499674 z"/>
<path fill="#000000" stroke="#000000" d="M19.151111077974463 18.70447455037693 L12.500000000000002 22.653630451042822 L12.500000000000002 21.240432481499674 L19.15111107797446 17.291276580833784 z"/>
<path fill="#000000" stroke="#000000" d="M23.492315519647708 -0.13032250164105508 L25 5.920135363790191 L23.49231551964771 11.970593229221434 L19.151111077974463 17.291276580833784 L12.500000000000004 21.240432481499674 L4.341204441673262 23.341734446265036 L-4.341204441673268 23.341734446265036 L-12.500000000000009 21.240432481499674 L-19.15111107797446 17.291276580833784 L-23.49231551964771 11.970593229221434 L-25 5.9201353637901875 L-23.492315519647708 -0.13032250164105508 L-19.15111107797445 -5.45100585325341 L-12.499999999999996 -9.400161753919294 L-4.3412044416732565 -11.501463718684652 L4.34120444167326 -11.501463718684652 L12.5 -9.400161753919292 L19.151111077974452 -5.45100585325341 M-10.849882862755255 -1.990096560667127 L-12.945827649822686 -0.13032250164105508 L-14.280356556253341 1.0538318980904262 L-14.625678113877605 2.124418660544374 L-15.85 5.920135363790189 L-15.504678442375734 6.990722126244137 L-14.634274736059103 9.689200299412096 L-14.280356556253343 10.786438829489954 L-13.312787052959012 11.644982753754906 L-9.882313359460932 14.688911212512458 L-8.484134917085196 15.165367145037496 L-3.5269568032075918 16.85461999671718 L-1.9750958097962565 16.854619996717183 L3.5269568032075678 16.854619996717183 L4.925135245583303 16.37816406419215 L9.882313359460912 14.688911212512467 L10.849882862755244 13.830367288247517 L14.280356556253336 10.786438829489965 L14.625678113877601 9.715852067036014 L15.85 5.920135363790191 L15.504678442375734 4.849548601336243 L14.634274736059101 2.1510704281682806 L14.280356556253343 1.053831898090428 L13.31278705295901 0.1952879738254771 L12.945827649822686 -0.13032250164105508 L9.882313359460925 -2.8486404849320763 L8.48413491708519 -3.3250964174571154 L3.526956803207584 -5.014349269136798 L1.9750958097962477 -5.014349269136798 L-3.526956803207581 -5.014349269136798 L-4.9251352455833155 -4.53789333661176 L-9.882313359460923 -2.8486404849320777 z"/>
<path fill="#000000" stroke="#000000" d="M25 7.333333333333338 L23.492315519647708 1.282875467902092 L19.151111077974452 -4.037807883710262 L12.5 -7.986963784376145 L4.34120444167326 -10.088265749141506 L-4.3412044416732565 -10.088265749141506 L-12.499999999999996 -7.9869637843761465 L-19.15111107797445 -4.037807883710262 L-23.492315519647708 1.282875467902092 L-25 7.333333333333334 L-23.49231551964771 13.38379119876458 L-19.15111107797446 18.704474550376933 L-12.500000000000009 22.653630451042822 L-4.341204441673268 24.75493241580818 L4.341204441673262 24.75493241580818 L12.500000000000004 22.653630451042822 L19.151111077974463 18.70447455037693 L23.49231551964771 13.38379119876458 M-12.945827649822686 1.282875467902092 L-10.761921998819407 -0.6549480387844299 L-9.882313359460923 -1.4354425153889308 L-4.7980281144582495 -3.1680095427527073 L-3.526956803207581 -3.601151299593652 L2.116174081924551 -3.601151299593652 L3.526956803207584 -3.601151299593652 L8.611242048210256 -1.868584272229874 L9.882313359460925 -1.4354425153889294 L12.945827649822686 1.282875467902092 L13.40074791689486 1.6865353910290741 L14.280356556253343 2.467029867633575 L14.634274736059101 3.564268397711428 L15.536071311250668 6.360072640193385 L15.85 7.333333333333338 L14.594285245002668 11.226376105893157 L14.280356556253336 12.199636799033112 L10.761921998819396 15.321614705451115 L9.882313359460912 16.102109182055614 L4.798028114458236 17.83467620941939 L3.5269568032075678 18.26781796626033 L-2.1161740819245596 18.26781796626033 L-3.5269568032075918 18.267817966260324 L-8.611242048210263 16.53525093889655 L-9.882313359460932 16.102109182055603 L-13.40074791689486 12.980131275637603 L-14.280356556253343 12.199636799033101 L-14.634274736059103 11.102398268955243 L-15.536071311250668 8.306594026473288 L-15.85 7.333333333333337 L-14.594285245002672 3.440290560773526 L-14.280356556253341 2.467029867633573 z"/>
<path fill="#000000" stroke="#000000" d="M9.88231335946091 16.102109182055614 L9.882313359460909 30.234088877487086 L11.565749883475975 28.740341715492068 L14.280356556253334 26.331616494464583 L14.280356556253334 12.199636799033112 L11.185120374501526 14.946102255995415 L10.761921998819396 15.321614705451115 z"/>
<path fill="#000000" stroke="#000000" d="M6.320293618595196 -2.6492685806964893 L8.611242048210254 -1.8685842722298835 L9.882313359460923 -1.435442515388939 L9.882313359460923 12.696537180042538 L9.079310126747485 12.422898535312035 L6.680745778640791 11.605542053076002 L3.5269568032075838 10.530828395837815 L3.5269568032075838 -3.6011512995936616 z"/>
<path fill="#000000" stroke="#000000" d="M15.85 21.465313028764808 L14.551275374439312 17.438928456183078 L14.280356556253343 16.599009563065046 L14.280356556253343 2.467029867633575 L15.00521413440496 4.714277138184582 L15.536071311250668 6.360072640193386 L15.85 7.3333333333333375 z"/>
<path fill="#000000" stroke="#000000" d="M12.62476224408828 15.129967356879947 L11.824003531175844 14.419438009445493 L11.069679852490152 13.750111403904699 L10.30787232188991 13.074144225702764 L9.882313359460927 12.69653718004254 L9.882313359460927 -1.4354425153889296 L11.83856795872098 0.3003816241604324 L13.400747916894861 1.6865353910290752 L14.280356556253343 2.4670298676335753 L14.280356556253347 16.599009563065042 L13.540157488855161 15.942216009839566 z"/>
<path fill="#000000" stroke="#000000" d="M3.526956803207584 10.530828395837814 L-3.526956803207581 10.530828395837814 L-3.526956803207581 -3.601151299593663 L-0.5435828178992279 -3.601151299593663 L2.116174081924551 -3.601151299593663 L3.526956803207584 -3.601151299593663 z"/>
<path fill="#000000" stroke="#000000" d="M-3.5269568032075806 10.530828395837808 L-9.86431377818159 12.690403479919867 L-9.882313359460921 12.69653718004253 L-9.882313359460921 -1.4354425153889336 L-7.564329871819157 -2.2253395347603755 L-4.798028114458249 -3.168009542752711 L-3.5269568032075806 -3.601151299593655 z"/>
<path fill="#000000" stroke="#000000" d="M-13.408620659438458 1.6935210341845186 L-10.76192199881941 -0.6549480387844304 L-9.882313359460925 -1.4354425153889316 L-9.882313359460927 12.696537180042538 L-14.280356556253343 16.599009563065042 L-14.280356556253341 2.4670298676335736 z"/>
<path fill="#000000" stroke="#000000" d="M-15.85 7.333333333333336 L-14.594285245002673 3.440290560773526 L-14.280356556253341 2.467029867633573 L-14.280356556253341 16.599009563065042 L-14.46213927843274 17.16258334440383 L-15.85 21.465313028764804 z"/>
<path fill="#000000" stroke="#000000" d="M-15.536071311250668 8.306594026473288 L-15.849999999999998 7.333333333333337 L-15.849999999999998 21.465313028764808 L-15.610888805555629 22.206620004465496 L-14.280356556253341 26.33161649446457 L-14.280356556253343 12.199636799033103 z"/>
<path fill="#000000" stroke="#000000" d="M-9.997798093927775 15.999637249254619 L-10.857109371707462 15.237153030727447 L-11.926721391225662 14.288064724872926 L-13.40074791689486 12.980131275637603 L-13.40862065943845 12.973145632482161 L-14.280356556253341 12.199636799033103 L-14.280356556253343 26.331616494464573 L-13.6018109651881 26.933703675346518 L-9.882313359460928 30.234088877487075 L-9.882313359460932 16.102109182055603 z"/>
<path fill="#000000" stroke="#000000" d="M-4.19044778325255 18.04172077863517 L-6.19889835836496 17.35730299425735 L-7.698417311562121 16.84631335264154 L-8.611242048210263 16.535250938896546 L-8.934794653000262 16.4249942267603 L-9.88231335946093 16.102109182055603 L-9.88231335946093 30.234088877487075 L-8.956485590816 30.549582322027504 L-3.5269568032075913 32.3997976616918 L-3.5269568032075913 18.267817966260328 z"/>
<path fill="#000000" stroke="#000000" d="M3.526956803207567 18.26781796626033 L-2.116174081924559 18.267817966260328 L-3.5269568032075913 18.267817966260324 L-3.5269568032075913 32.3997976616918 L-2.486616264833456 32.3997976616918 L3.526956803207567 32.3997976616918 z"/>
<path fill="#000000" stroke="#000000" d="M9.88231335946091 16.102109182055614 L4.798028114458236 17.83467620941939 L3.526956803207567 18.26781796626033 L3.526956803207567 32.3997976616918 L4.760074492381341 31.97958932439967 L9.88231335946091 30.234088877487082 z"/>
<path fill="#000000" stroke="#000000" d="M14.280356556253334 26.331616494464583 L15.849999999999998 21.465313028764808 L15.849999999999998 7.333333333333338 L15.029361869439066 9.877525260961066 L14.594285245002668 11.226376105893157 L14.280356556253334 12.199636799033112 z"/>
<path fill="#000000" stroke="#000000" d="M-21.625408193045836 24.325835979220944 L-21.871151467966808 10.226362226408295 L-18.704776986051506 29.660552404969255 z"/>
<path fill="#000000" stroke="#000000" d="M20.51438904689583 15.841678806111203 L16.442948408159662 -3.273611301775007 L16.258196178854497 10.977547546859928 z"/>
<path fill="#000000" stroke="#000000" d="M16.44294840815967 -3.273611301775007 L9.806243827083845 7.529847130654631 L16.258196178854497 10.977547546859926 z"/>
<path fill="#000000" stroke="#000000" d="M9.917678416027982 21.427156798467493 L16.258196178854497 31.953078510669688 L9.806243827083847 35.400778926874985 z"/>
<path fill="#000000" stroke="#000000" d="M2.0529709980584703 23.01058667295513 L9.917678416027982 21.427156798467493 L9.806243827083847 35.400778926874985 z"/>
<path fill="#000000" stroke="#000000" d="M-18.917331269983904 15.621700429721928 L-13.408620659438446 19.897648729240725 L-18.704776986051506 29.660552404969255 z"/>
<path fill="#000000" stroke="#000000" d="M-6.089001529103828 22.476716613267218 L-6.020585781585808 36.43854593476685 L-13.408620659438446 19.89764872924072 z"/>
<path fill="#000000" stroke="#000000" d="M9.917678416027972 -6.760490131800817 L2.0299039081926398 5.9642086030713495 L9.806243827083838 7.529847130654631 z"/>
<path fill="#000000" stroke="#000000" d="M-18.704776986051513 13.270073652560374 L-18.917331269983915 -0.9550337630552383 L-21.871151467966815 4.440304440258392 z"/>
<path fill="#000000" stroke="#000000" d="M2.0299039081926447 36.966417454458266 L2.0529709980584703 23.010586672955128 L9.806243827083847 35.400778926874985 z"/>
<path fill="#000000" stroke="#000000" d="M-6.089001529103846 -7.810049946600539 L-13.25796200034364 9.042169715957511 L-6.020585781585825 6.492080122762775 z"/>
<path fill="#000000" stroke="#000000" d="M-21.871151467966808 10.226362226408295 L-18.917331269983908 15.621700429721928 L-18.704776986051506 29.660552404969255 z"/>
<path fill="#000000" stroke="#000000" d="M-21.871151467966815 4.440304440258393 L-21.87115146796681 10.226362226408295 L-21.62540819304584 18.60479007830868 z"/>
<path fill="#000000" stroke="#000000" d="M20.51438904689583 15.8416788061112 L20.747507104246917 1.645794176331395 L16.442948408159662 -3.273611301775007 z"/>
<path fill="#000000" stroke="#000000" d="M20.74750710424692 13.02087249033527 L16.258196178854497 31.95307851066969 L16.442948408159662 17.94027796844168 z"/>
<path fill="#000000" stroke="#000000" d="M-6.020585781585808 36.43854593476684 L-13.257962000343632 33.88845634157211 L-13.408620659438444 19.897648729240725 z"/>
<path fill="#000000" stroke="#000000" d="M2.0299039081926398 5.9642086030713495 L9.917678416027972 -6.760490131800817 L2.0529709980584654 -8.343920006288453 z"/>
<path fill="#000000" stroke="#000000" d="M2.0299039081926447 36.966417454458266 L-6.020585781585808 36.43854593476685 L2.0529709980584703 23.010586672955135 z"/>
<path fill="#000000" stroke="#000000" d="M16.258196178854497 31.953078510669688 L9.917678416027982 21.427156798467493 L16.442948408159662 17.94027796844168 z"/>
<path fill="#000000" stroke="#000000" d="M-21.87115146796681 10.226362226408295 L-21.625408193045836 24.325835979220948 L-21.62540819304584 18.60479007830868 z"/>
<path fill="#000000" stroke="#000000" d="M-18.704776986051513 13.270073652560372 L-21.871151467966815 4.440304440258392 L-21.62540819304584 18.60479007830868 z"/>
<path fill="#000000" stroke="#000000" d="M-18.917331269983915 -0.9550337630552383 L-18.70477698605152 13.270073652560372 L-13.408620659438457 -5.230982062574041 z"/>
<path fill="#000000" stroke="#000000" d="M2.029903908192645 36.966417454458266 L9.806243827083849 35.400778926874985 L16.2581961788545 31.953078510669688 L20.514389046895836 27.0889472514184 L22 21.465313028764808 L20.51438904689583 15.841678806111203 L16.258196178854497 10.977547546859926 L9.80624382708384 7.529847130654631 L2.02990390819264 5.9642086030713495 L-6.020585781585826 6.492080122762774 L-13.257962000343642 9.042169715957511 L-18.704776986051513 13.270073652560372 L-21.62540819304584 18.60479007830868 L-21.625408193045836 24.325835979220944 L-18.704776986051506 29.660552404969255 L-13.257962000343634 33.88845634157211 L-6.020585781585809 36.43854593476685 M14.280356556253343 16.599009563065046 L14.551275374439312 17.438928456183078 L15.85 21.465313028764808 L14.280356556253336 26.331616494464583 L11.565749883475975 28.740341715492065 L9.882313359460912 30.234088877487082 L4.760074492381342 31.979589324399672 L3.5269568032075678 32.3997976616918 L-2.486616264833456 32.39979766169179 L-3.5269568032075918 32.39979766169179 L-8.956485590816 30.549582322027508 L-9.882313359460932 30.23408887748707 L-13.601810965188104 26.93370367534652 L-14.280356556253343 26.331616494464573 L-15.610888805555629 22.206620004465496 L-15.85 21.465313028764804 L-14.462139278432739 17.162583344403835 L-14.280356556253341 16.599009563065042 L-9.882313359460923 12.696537180042538 L-9.864313778181591 12.690403479919874 L-3.526956803207581 10.530828395837819 L3.526956803207584 10.530828395837819 L6.680745778640792 11.605542053076004 L9.079310126747485 12.422898535312038 L9.882313359460925 12.696537180042542 L10.30787232188991 13.074144225702764 L11.069679852490147 13.7501114039047 L11.824003531175839 14.419438009445495 L12.624762244088279 15.129967356879945 L13.540157488855156 15.942216009839566 z"/>
<path fill="#000000" stroke="#000000" d="M16.44294840815967 -3.273611301775007 L9.917678416027975 -6.760490131800818 L9.806243827083842 7.529847130654632 z"/>
<path fill="#000000" stroke="#000000" d="M-6.089001529103846 -7.810049946600539 L2.0299039081926398 5.9642086030713495 L2.0529709980584654 -8.343920006288453 z"/>
<path fill="#000000" stroke="#000000" d="M22 21.465313028764808 L22.25 7.333333333333338 L20.51438904689583 15.8416788061112 z"/>
<path fill="#000000" stroke="#000000" d="M22.25 7.333333333333338 L20.747507104246925 13.020872490335268 L16.442948408159666 17.94027796844168 L9.917678416027984 21.427156798467493 L2.0529709980584707 23.01058667295513 L-6.08900152910383 22.476716613267218 L-13.408620659438448 19.89764872924072 L-18.917331269983908 15.621700429721928 L-21.87115146796681 10.226362226408295 L-21.871151467966815 4.440304440258392 L-18.917331269983915 -0.9550337630552383 L-13.408620659438457 -5.230982062574042 L-6.089001529103847 -7.810049946600539 L2.052970998058466 -8.343920006288455 L9.917678416027973 -6.760490131800818 L16.442948408159662 -3.273611301775007 L20.747507104246917 1.6457941763313952 M-15.536071311250668 8.306594026473288 L-14.280356556253343 12.199636799033103 L-13.40862065943845 12.973145632482163 L-13.40074791689486 12.980131275637603 L-11.926721391225662 14.288064724872926 L-10.857109371707462 15.237153030727447 L-9.997798093927775 15.999637249254619 L-9.882313359460932 16.102109182055603 L-8.934794653000262 16.424994226760305 L-8.611242048210263 16.53525093889655 L-7.698417311562122 16.846313352641545 L-6.19889835836496 17.35730299425735 L-4.19044778325255 18.041720778635174 L-3.5269568032075918 18.267817966260328 L-2.1161740819245596 18.26781796626033 L3.5269568032075678 18.26781796626033 L4.798028114458236 17.83467620941939 L9.882313359460912 16.102109182055614 L10.761921998819396 15.321614705451115 L11.185120374501528 14.946102255995415 L14.280356556253336 12.199636799033112 L14.594285245002668 11.226376105893157 L15.029361869439066 9.877525260961066 L15.85 7.333333333333338 L15.536071311250668 6.360072640193386 L15.00521413440496 4.714277138184581 L14.280356556253343 2.467029867633575 L13.40074791689486 1.6865353910290741 L11.83856795872098 0.30038162416043135 L9.882313359460925 -1.4354425153889294 L8.611242048210256 -1.868584272229874 L6.320293618595197 -2.6492685806964795 L3.526956803207584 -3.601151299593652 L2.116174081924551 -3.601151299593652 L-0.5435828178992279 -3.601151299593652 L-3.526956803207581 -3.601151299593652 L-4.7980281144582495 -3.1680095427527077 L-7.564329871819157 -2.225339534760373 L-9.882313359460923 -1.4354425153889308 L-10.761921998819407 -0.6549480387844299 L-13.408620659438453 1.693521034184519 L-14.280356556253341 2.467029867633573 L-14.594285245002672 3.440290560773526 L-15.85 7.333333333333336 z"/>
<path fill="#000000" stroke="#000000" d="M-6.089001529103846 -7.8100499466005395 L-13.408620659438455 -5.230982062574042 L-13.257962000343639 9.042169715957511 z"/>
<path fill="#000000" stroke="#000000" d="M-13.408620659438448 19.897648729240725 L-13.257962000343632 33.88845634157211 L-18.704776986051503 29.660552404969255 z"/>
<path fill="#000000" stroke="#000000" d="M-13.408620659438458 -5.230982062574041 L-18.704776986051517 13.270073652560374 L-13.25796200034365 9.042169715957511 z"/>
<path fill="#000000" stroke="#000000" d="M22.25 7.3333333333333375 L20.747507104246917 1.645794176331395 L20.51438904689583 15.841678806111203 z"/>
<path fill="#000000" stroke="#000000" d="M20.514389046895833 27.0889472514184 L16.258196178854497 31.953078510669688 L20.74750710424692 13.02087249033527 z"/>
<path fill="#000000" stroke="#000000" d="M22.25 7.333333333333338 L20.514389046895833 27.088947251418404 L20.747507104246925 13.020872490335268 z"/>
<path fill="#000000" stroke="#000000" d="M-6.020585781585808 36.43854593476685 L-6.089001529103829 22.476716613267218 L2.0529709980584703 23.010586672955135 z"/>
<path fill="#000000" stroke="#000000" d="M22.25 7.3333333333333375 L21.999999999999996 21.465313028764804 L20.514389046895833 27.0889472514184 z"/>
<path fill="#000000" stroke="#000000" d="M2.0299039081926398 5.9642086030713495 L-6.089001529103846 -7.8100499466005395 L-6.020585781585825 6.492080122762775 z"/>
</svg>