<?xml version="1.0" encoding="UTF-8"?>
<!-- Generated by jsxcad -->
<!DOCTYPE svg PUBLIC "-//W3C//DTD SVG 1.1 Tiny//EN" "http://www.w3.org/Graphics/SVG/1.1/DTD/svg11-tiny.dtd">
<svg baseProfile="tiny" height="48.727581748163466mm" width="49.574327492097574mm" viewBox="-24.57432749209756 -37.03282571912016 49.574327492097574 48.727581748163466" version="1.1" stroke="black" stroke-width=".1" fill="none" xmlns="http://www.w3.org/2000/svg">
<path fill="#000000" stroke="#000000" d="M3.329170352775264 18.086527183868373 L6.534219177820853 17.226411714236907 L9.003826235688827 16.563661363045895 L9.003826235688827 15.150463393502749 L6.534219177820853 15.81321374469376 L3.471036749848103 16.635257568804665 L1.9105063820468735 17.054045669530847 L1.9105063820468735 18.467243639073992 z"/>
<path fill="#000000" stroke="#000000" d="M10.110569625290028 14.266472771675513 L9.003826235688827 15.150463393502749 L9.003826235688829 16.563661363045895 L10.009956589871736 15.760033525021136 L14.034478006603376 12.545522172922098 L14.034478006603376 11.13232420337895 z"/>
<path fill="#000000" stroke="#000000" d="M7.585162264960427 -2.2777111515848456 L2.8153151818989937 -3.557760064368352 L1.9105063820468688 -3.800576972407319 L1.9105063820468688 -5.213774941950462 L2.8153151818989937 -4.970958033911495 L7.443295867887588 -3.7289807666485513 L9.003826235688816 -3.310192665922371 L9.003826235688816 -1.8969946963792268 z"/>
<path fill="#000000" stroke="#000000" d="M14.433892845150634 9.985642658669423 L14.034478006603377 11.132324203378952 L14.034478006603377 12.545522172922098 L14.397582405282702 11.503084405004346 L15.849999999999998 7.3333333333333375 L15.849999999999998 5.920135363790191 z"/>
<path fill="#000000" stroke="#000000" d="M-10.49034562075664 14.028394432080823 L-11.863895358511948 13.357510400117373 L-11.863895358511948 14.770708369660518 L-10.615213778734397 15.380602944172745 L-5.620487459624186 17.820181242221647 L-5.620487459624186 16.406983272678502 z"/>
<path fill="#000000" stroke="#000000" d="M13.028347652420468 1.3175166557198155 L9.568216794587103 -1.4461982734670484 L9.003826235688821 -1.8969946963792246 L9.00382623568882 -3.31019266592237 L9.568216794587105 -2.8593962430101962 L12.927734617002175 -0.17604409762580486 L14.034478006603381 0.7079465242014292 L14.034478006603377 2.121144493744577 z"/>
<path fill="#000000" stroke="#000000" d="M-5.97259168789019 -2.9815360167613867 L-6.869169039401742 -2.5436200010427514 L-11.863895358511952 -0.10404170299384644 L-11.863895358511952 -1.5172396725369925 L-6.994037197379497 -3.895828513134675 L-5.97259168789019 -4.394733986304533 L-5.620487459624189 -4.566712545098124 L-5.620487459624189 -3.1535145755549774 z"/>
<path fill="#000000" stroke="#000000" d="M15.486895601320674 6.290895565415586 L14.333697416284894 2.9801746092721437 L14.034478006603377 2.1211444937445765 L14.034478006603377 0.7079465242014296 L14.333697416284895 1.5669766397289966 L15.450585161452743 4.773453819080664 L15.85 5.920135363790191 L15.849999999999998 7.333333333333338 z"/>
<path fill="#000000" stroke="#000000" d="M-15.389427806202926 4.649244160304326 L-15.389427806202924 3.236046190761179 L-12.639512497003969 -0.4715167826113896 L-11.863895358511956 -1.5172396725369868 L-11.863895358511954 -0.10404170299383937 L-12.569001848050148 0.8466154696657946 z"/>
<path fill="#000000" stroke="#000000" d="M-5.620487459624189 -3.1535145755549774 L-5.620487459624189 -4.566712545098124 L0.253687736879236 -5.071421214642952 L1.9105063820468686 -5.213774941950469 L1.9105063820468686 -3.800576972407322 L0.40430761371265717 -3.671164493036853 z"/>
<path fill="#000000" stroke="#000000" d="M-15.389427806202924 5.722879829515932 L-15.389427806202924 7.347628086170644 L-15.389427806202924 10.017422506362356 L-15.389427806202924 8.60422453681921 L-15.389427806202924 5.934430116627497 L-15.389427806202924 4.417045426893946 L-15.389427806202924 3.2360461907611793 L-15.389427806202924 4.649244160304326 z"/>
<path fill="#000000" stroke="#000000" d="M-11.86389535851195 14.77070836966052 L-11.863895358511948 13.357510400117372 L-14.613810667710908 9.649947426744806 L-15.38942780620292 8.604224536819208 L-15.389427806202923 10.017422506362355 L-14.684321316664729 10.968079679021988 z"/>
<path fill="#000000" stroke="#000000" d="M-5.620487459624186 16.406983272678502 L-5.620487459624186 17.820181242221647 L-4.114288691289974 17.949593721592116 L1.9105063820468733 18.467243639073992 L1.9105063820468733 17.054045669530844 L-3.963668814456553 16.549336999986018 z"/>
<path fill="#000000" stroke="#000000" d="M23.311805735108894 0.9428398984996942 L25 7.3333333333333375 L25 5.920135363790191 L23.311805735108894 -0.4703580710434528 z"/>
<path fill="#000000" stroke="#000000" d="M18.475222930516473 -4.5845819870131175 L23.311805735108894 0.9428398984996937 L23.311805735108894 -0.4703580710434529 L18.475222930516473 -5.997779956556264 z"/>
<path fill="#000000" stroke="#000000" d="M11.143458894413458 -8.502423369064587 L18.475222930516477 -4.584581987013114 L18.475222930516477 -5.997779956556261 L11.143458894413461 -9.915621338607737 z"/>
<path fill="#000000" stroke="#000000" d="M2.3067089865825454 -10.281558059500139 L11.143458894413452 -8.50242336906459 L11.143458894413452 -9.91562133860774 L2.3067089865825454 -11.694756029043289 z"/>
<path fill="#000000" stroke="#000000" d="M-6.841574751802074 -9.681704059850793 L2.3067089865825454 -10.281558059500139 L2.3067089865825454 -11.694756029043292 L-6.841574751802074 -11.094902029393946 z"/>
<path fill="#000000" stroke="#000000" d="M-15.065865909481412 -6.7838749766749595 L-6.841574751802074 -9.681704059850798 L-6.841574751802074 -11.094902029393943 L-15.065865909481412 -8.197072946218103 z"/>
<path fill="#000000" stroke="#000000" d="M-21.255428393240354 -1.9794386850807935 L-15.065865909481413 -6.783874976674952 L-15.065865909481413 -8.197072946218102 L-21.255428393240354 -3.3926366546239395 z"/>
<path fill="#000000" stroke="#000000" d="M-24.574327492097545 4.082739071451376 L-21.255428393240354 -1.979438685080794 L-21.255428393240354 -3.3926366546239404 L-24.574327492097545 2.6695411019082287 z"/>
<path fill="#000000" stroke="#000000" d="M-24.574327492097538 10.583927595215311 L-24.57432749209754 4.082739071451376 L-24.57432749209754 2.669541101908229 L-24.574327492097538 9.170729625672164 z"/>
<path fill="#000000" stroke="#000000" d="M-21.255428393240344 16.646105351747483 L-24.574327492097538 10.583927595215311 L-24.574327492097538 9.170729625672163 L-21.255428393240344 15.232907382204337 z"/>
<path fill="#000000" stroke="#000000" d="M-15.065865909481401 21.45054164334164 L-21.255428393240344 16.646105351747483 L-21.255428393240344 15.232907382204337 L-15.065865909481401 20.037343673798492 z"/>
<path fill="#000000" stroke="#000000" d="M-6.841574751802055 24.348370726517476 L-15.065865909481401 21.45054164334164 L-15.065865909481401 20.037343673798492 L-6.841574751802055 22.935172756974328 z"/>
<path fill="#000000" stroke="#000000" d="M2.306708986582551 24.948224726166817 L-6.841574751802055 24.348370726517476 L-6.841574751802055 22.935172756974328 L2.306708986582551 23.53502675662367 z"/>
<path fill="#000000" stroke="#000000" d="M11.143458894413463 23.169090035731266 L2.306708986582551 24.948224726166817 L2.306708986582551 23.53502675662367 L11.143458894413463 21.755892066188117 z"/>
<path fill="#000000" stroke="#000000" d="M18.475222930516477 19.25124865367979 L11.143458894413465 23.169090035731266 L11.143458894413465 21.755892066188117 L18.475222930516477 17.838050684136643 z"/>
<path fill="#000000" stroke="#000000" d="M23.3118057351089 13.723826768166969 L18.475222930516477 19.25124865367979 L18.47522293051648 17.838050684136643 L23.3118057351089 12.31062879862382 z"/>
<path fill="#000000" stroke="#000000" d="M24.999999999999996 7.333333333333338 L23.3118057351089 13.723826768166969 L23.3118057351089 12.31062879862382 L24.999999999999996 5.920135363790191 z"/>
<path fill="#000000" stroke="#000000" d="M-21.255428393240354 -3.39263665462394 L-15.065865909481413 -8.1970729462181 L-6.841574751802075 -11.094902029393937 L2.306708986582546 -11.694756029043283 L11.143458894413454 -9.915621338607737 L18.475222930516473 -5.997779956556264 L23.311805735108894 -0.47035807104345273 L25 5.920135363790191 L23.311805735108905 12.310628798623823 L18.47522293051648 17.838050684136643 L11.143458894413465 21.755892066188117 L2.3067089865825516 23.53502675662367 L-6.841574751802056 22.935172756974328 L-15.065865909481403 20.037343673798492 L-21.255428393240347 15.232907382204335 L-24.57432749209754 9.170729625672164 L-24.574327492097545 2.6695411019082287 M-5.62048745962419 -4.566712545098117 L-5.97259168789019 -4.394733986304526 L-6.994037197379497 -3.8958285131346684 L-11.863895358511954 -1.5172396725369859 L-12.639512497003967 -0.47151678261138974 L-15.389427806202924 3.2360461907611793 L-15.389427806202924 4.417045426893945 L-15.389427806202924 5.934430116627497 L-15.389427806202924 8.604224536819208 L-14.61381066771091 9.649947426744806 L-11.86389535851195 13.357510400117373 L-10.490345620756642 14.02839443208082 L-5.6204874596241865 16.406983272678502 L-3.963668814456553 16.549336999986018 L1.9105063820468737 17.054045669530847 L3.4710367498481034 16.63525756880466 L6.534219177820854 15.813213744693758 L9.003826235688829 15.15046339350275 L10.11056962529003 14.266472771675513 L14.03447800660338 11.13232420337895 L14.433892845150634 9.985642658669423 L15.85 5.920135363790191 L15.450585161452741 4.773453819080664 L14.333697416284894 1.5669766397289966 L14.034478006603377 0.7079465242014297 L12.927734617002173 -0.17604409762580625 L9.568216794587102 -2.8593962430101967 L9.003826235688818 -3.31019266592237 L7.4432958678875885 -3.7289807666485504 L2.8153151818989937 -4.970958033911495 L1.910506382046869 -5.2137749419504615 L0.253687736879236 -5.071421214642946 z"/>
<path fill="#000000" stroke="#000000" d="M25 7.3333333333333375 L23.311805735108894 0.9428398984996944 L18.475222930516473 -4.5845819870131175 L11.143458894413454 -8.502423369064589 L2.306708986582546 -10.281558059500137 L-6.841574751802075 -9.681704059850793 L-15.065865909481413 -6.783874976674954 L-21.255428393240354 -1.9794386850807935 L-24.574327492097545 4.082739071451376 L-24.57432749209754 10.583927595215311 L-21.255428393240347 16.646105351747483 L-15.065865909481403 21.45054164334164 L-6.841574751802056 24.348370726517476 L2.3067089865825516 24.948224726166814 L11.143458894413465 23.169090035731266 L18.47522293051648 19.25124865367979 L23.311805735108905 13.723826768166969 M2.8153151818989937 -3.557760064368348 L7.585162264960427 -2.277711151584841 L9.003826235688818 -1.8969946963792228 L9.568216794587102 -1.4461982734670493 L13.028347652420464 1.3175166557198168 L14.034478006603377 2.1211444937445765 L14.333697416284894 2.9801746092721433 L15.486895601320674 6.290895565415585 L15.85 7.333333333333339 L14.397582405282703 11.503084405004346 L14.03447800660338 12.545522172922096 L10.009956589871738 15.760033525021136 L9.003826235688829 16.563661363045895 L6.534219177820854 17.226411714236907 L3.3291703527752645 18.086527183868373 L1.9105063820468737 18.467243639073992 L-4.114288691289974 17.94959372159212 L-5.6204874596241865 17.82018124222165 L-10.615213778734397 15.380602944172745 L-11.86389535851195 14.77070836966052 L-14.684321316664729 10.968079679021988 L-15.389427806202924 10.017422506362356 L-15.389427806202924 7.347628086170643 L-15.389427806202924 5.722879829515932 L-15.389427806202924 4.649244160304326 L-12.569001848050148 0.8466154696657939 L-11.863895358511954 -0.10404170299383894 L-6.869169039401743 -2.5436200010427434 L-5.97259168789019 -2.9815360167613787 L-5.62048745962419 -3.1535145755549694 L0.4043076137126572 -3.6711644930368457 L1.910506382046869 -3.8005769724073146 z"/>
<path fill="#000000" stroke="#000000" d="M-12.569001848050148 0.8466154696657943 L-12.030882386967752 0.12109793009419856 L-11.863895358511956 -0.10404170299383864 L-11.863895358511956 14.02793799243763 L-15.389427806202924 18.781223855735796 L-15.389427806202924 4.649244160304326 L-13.916392090048141 2.6632292959913966 L-12.817354141464318 1.1814555152244146 z"/>
<path fill="#000000" stroke="#000000" d="M10.901858610246354 15.047643436218326 L10.009956589871736 15.760033525021138 L9.003826235688829 16.563661363045895 L9.003826235688827 30.695641058477367 L11.556126895404603 28.657038552719275 L14.03447800660338 26.67750186835357 L14.034478006603376 12.545522172922098 z"/>
<path fill="#000000" stroke="#000000" d="M-5.620487459624186 17.820181242221647 L-5.620487459624186 31.95216093765312 L0.443832361213882 32.473206818322694 L1.9105063820468735 32.59922333450546 L1.9105063820468735 18.46724363907399 L-2.942937282555707 18.05023614223759 L-4.114288691289974 17.949593721592112 z"/>
<path fill="#000000" stroke="#000000" d="M14.03447800660338 26.67750186835357 L15.150727086744292 23.4728582348018 L15.85 21.465313028764808 L15.849999999999998 7.333333333333338 L14.713564043280648 10.595931545893775 L14.397582405282702 11.503084405004346 L14.034478006603377 12.545522172922098 z"/>
<path fill="#000000" stroke="#000000" d="M11.403830320072181 0.019963762895089977 L13.028347652420468 1.3175166557198175 L14.03447800660338 2.1211444937445765 L14.03447800660338 16.253124189176045 L10.901858610246359 13.751002925879822 L9.003826235688818 12.234984999052248 L9.003826235688818 -1.8969946963792221 z"/>
<path fill="#000000" stroke="#000000" d="M14.034478006603377 2.121144493744577 L15.122301358563165 5.244180598595653 L15.486895601320674 6.290895565415586 L15.85 7.333333333333338 L15.85 21.465313028764808 L14.701150480000381 18.16707667123875 L14.034478006603376 16.253124189176045 z"/>
<path fill="#000000" stroke="#000000" d="M1.9105063820468688 -3.8005769724073164 L1.9139599697552643 -3.7996501583786166 L7.5851622649604264 -2.277711151584843 L9.003826235688816 -1.8969946963792244 L9.003826235688816 12.234984999052248 L4.6558071197850746 11.068138967061161 L1.9105063820468688 10.331402723024155 z"/>
<path fill="#000000" stroke="#000000" d="M0.40430761371265717 -3.671164493036847 L1.899719430469299 -3.799650158378616 L1.9105063820468688 -3.800576972407316 L1.9105063820468688 10.331402723024151 L-2.833899896744741 10.739041736272238 L-5.620487459624189 10.978465119876496 L-5.620487459624189 -3.153514575554971 z"/>
<path fill="#000000" stroke="#000000" d="M-11.863895358511952 -0.10404170299384176 L-11.063184756112971 -0.4951334433273157 L-9.922465253436933 -1.0522960114228106 L-8.586337291214441 -1.7049020946796363 L-6.869169039401742 -2.543620001042746 L-6.855818884237342 -2.550140628347198 L-5.620487459624189 -3.1535145755549725 L-5.620487459624189 10.978465119876498 L-10.133789336313718 13.182900880207939 L-11.863895358511952 14.027937992437629 z"/>
<path fill="#000000" stroke="#000000" d="M-15.389427806202924 5.722879829515932 L-15.389427806202924 4.649244160304326 L-15.389427806202924 18.781223855735796 L-15.389427806202924 24.149402201793826 L-15.389427806202924 10.017422506362356 z"/>
<path fill="#000000" stroke="#000000" d="M-15.38942780620292 24.149402201793826 L-13.813698797541415 26.27387291150606 L-12.759477800903923 27.695222405365076 L-12.005077065314254 28.712340359871117 L-11.863895358511948 28.90268806509199 L-11.863895358511948 14.77070836966052 L-14.684321316664727 10.968079679021988 L-15.389427806202923 10.017422506362355 z"/>
<path fill="#000000" stroke="#000000" d="M2.380081806961588 32.473206818322694 L9.003826235688827 30.695641058477364 L9.003826235688827 16.56366136304589 L4.6090080382738625 17.743066521643037 L3.329170352775264 18.08652718386837 L1.9105063820468733 18.46724363907399 L1.9105063820468733 32.59922333450546 z"/>
<path fill="#000000" stroke="#000000" d="M-9.965646231212338 29.829851452910074 L-8.68009626972226 30.45775368152858 L-7.015085182201261 31.270996421092867 L-5.620487459624186 31.952160937653115 L-5.620487459624186 17.820181242221647 L-10.297940847168105 15.535568823974016 L-10.615213778734395 15.380602944172745 L-11.863895358511948 14.770708369660518 L-11.863895358511948 28.902688065091986 L-11.063184756112975 29.293779805425455 z"/>
<path fill="#000000" stroke="#000000" d="M-2.7248391281028606e-15 23.07774957698816 L8.419035512031972 35.84781937549382 L-2.694222958124177e-15 37.03282571912014 z"/>
<path fill="#000000" stroke="#000000" d="M-8.514706370123246 -7.212610585517587 L-15.556349186104041 10.45741923920692 L-8.419035512031973 7.082806682035806 z"/>
<path fill="#000000" stroke="#000000" d="M-20.556319598376135 1.3082060846268375 L-15.556349186104043 10.457419239206923 L-15.733125881400683 -3.799650158378615 z"/>
<path fill="#000000" stroke="#000000" d="M-8.514706370123248 21.879277252184266 L-8.419035512031975 35.84781937549381 L-15.556349186104045 32.473206818322694 z"/>
<path fill="#000000" stroke="#000000" d="M0 5.897800338409481 L-8.514706370123246 -7.212610585517587 L-8.419035512031973 7.082806682035805 z"/>
<path fill="#000000" stroke="#000000" d="M-8.419035512031975 35.847819375493806 L-8.514706370123248 21.879277252184266 L-2.694222958124177e-15 37.03282571912014 z"/>
<path fill="#000000" stroke="#000000" d="M-8.514706370123246 -7.212610585517585 L0 5.897800338409482 L0 -8.411082910321479 z"/>
<path fill="#000000" stroke="#000000" d="M8.514706370123246 -7.212610585517586 L15.55634918610404 10.45741923920692 L15.73312588140068 -3.7996501583786153 z"/>
<path fill="#000000" stroke="#000000" d="M-15.55634918610404 10.45741923920692 L-8.514706370123246 -7.212610585517586 L-15.73312588140068 -3.7996501583786153 z"/>
<path fill="#000000" stroke="#000000" d="M-8.514706370123248 21.879277252184266 L-2.7248391281028606e-15 23.077749576988158 L-2.694222958124177e-15 37.03282571912013 z"/>
<path fill="#000000" stroke="#000000" d="M8.514706370123246 -7.212610585517587 L0 5.897800338409481 L8.419035512031973 7.082806682035805 z"/>
<path fill="#000000" stroke="#000000" d="M20.55631959837613 1.3082060846268373 L15.556349186104045 10.457419239206923 L20.325349715248304 15.507883839032537 z"/>
<path fill="#000000" stroke="#000000" d="M-22 21.465313028764808 L-20.325349715248308 15.507883839032537 L-20.55631959837613 1.3082060846268373 z"/>
<path fill="#000000" stroke="#000000" d="M22.249999999999996 7.333333333333338 L20.3253497152483 27.42274221849709 L20.556319598376124 13.358460582039847 z"/>
<path fill="#000000" stroke="#000000" d="M-22.25 7.333333333333338 L-22 21.465313028764808 L-20.55631959837613 1.3082060846268373 z"/>
<path fill="#000000" stroke="#000000" d="M-20.325349715248308 27.422742218497074 L-21.999999999999996 21.465313028764808 L-20.556319598376128 13.35846058203984 z"/>
<path fill="#000000" stroke="#000000" d="M21.999999999999996 21.465313028764808 L20.3253497152483 27.42274221849709 L22.249999999999996 7.3333333333333375 z"/>
<path fill="#000000" stroke="#000000" d="M20.55631959837613 1.3082060846268373 L22 21.465313028764808 L22.25 7.333333333333338 z"/>
<path fill="#000000" stroke="#000000" d="M15.73312588140068 18.466316825045297 L15.556349186104041 32.473206818322694 L8.419035512031972 35.84781937549381 z"/>
<path fill="#000000" stroke="#000000" d="M8.514706370123243 21.879277252184263 L15.733125881400678 18.466316825045297 L8.419035512031972 35.84781937549381 z"/>
<path fill="#000000" stroke="#000000" d="M15.556349186104043 10.457419239206923 L20.556319598376135 1.3082060846268375 L15.733125881400683 -3.799650158378615 z"/>
<path fill="#000000" stroke="#000000" d="M-20.325349715248308 27.422742218497078 L-20.556319598376128 13.358460582039838 L-15.556349186104045 32.473206818322694 z"/>
<path fill="#000000" stroke="#000000" d="M-20.556319598376128 13.358460582039838 L-15.733125881400682 18.46631682504529 L-15.556349186104047 32.473206818322694 z"/>
<path fill="#000000" stroke="#000000" d="M-15.733125881400682 18.46631682504529 L-8.514706370123248 21.879277252184266 L-15.556349186104045 32.473206818322694 z"/>
<path fill="#000000" stroke="#000000" d="M22 21.465313028764808 L20.55631959837613 1.3082060846268373 L20.325349715248308 15.507883839032537 z"/>
<path fill="#000000" stroke="#000000" d="M-21.999999999999996 21.465313028764808 L-22.249999999999996 7.3333333333333375 L-20.556319598376128 13.35846058203984 z"/>
<path fill="#000000" stroke="#000000" d="M8.514706370123243 21.879277252184266 L8.419035512031972 35.84781937549381 L-2.7248391281028606e-15 23.077749576988158 z"/>
<path fill="#000000" stroke="#000000" d="M0 5.897800338409482 L8.514706370123246 -7.212610585517585 L0 -8.411082910321479 z"/>
<path fill="#000000" stroke="#000000" d="M20.325349715248304 27.42274221849709 L15.556349186104041 32.473206818322694 L15.733125881400682 18.466316825045293 z"/>
<path fill="#000000" stroke="#000000" d="M15.556349186104043 10.45741923920692 L8.419035512031975 7.082806682035805 L0 5.897800338409482 L-8.419035512031975 7.082806682035805 L-15.556349186104043 10.45741923920692 L-20.325349715248308 15.507883839032539 L-22 21.465313028764808 L-20.325349715248308 27.422742218497078 L-15.556349186104047 32.47320681832269 L-8.419035512031977 35.847819375493806 L-2.6942229581241772e-15 37.03282571912013 L8.419035512031973 35.84781937549381 L15.556349186104043 32.473206818322694 L20.325349715248304 27.42274221849709 L22 21.465313028764808 L20.325349715248308 15.507883839032539 M-15.389427806202924 18.781223855735796 L-11.863895358511954 14.02793799243763 L-10.13378933631372 13.182900880207939 L-5.62048745962419 10.9784651198765 L-2.8338998967447413 10.739041736272242 L1.910506382046869 10.331402723024155 L4.6558071197850746 11.068138967061161 L9.003826235688818 12.234984999052248 L10.901858610246354 13.751002925879822 L14.034478006603377 16.253124189176045 L14.70115048000038 18.16707667123875 L15.85 21.465313028764808 L15.150727086744292 23.4728582348018 L14.03447800660338 26.677501868353566 L11.556126895404603 28.65703855271928 L9.003826235688829 30.695641058477364 L2.380081806961588 32.473206818322694 L1.9105063820468737 32.59922333450546 L0.44383236121388203 32.473206818322694 L-5.6204874596241865 31.952160937653122 L-7.015085182201261 31.27099642109287 L-8.680096269722261 30.457753681528583 L-9.965646231212338 29.829851452910077 L-11.063184756112976 29.293779805425462 L-11.86389535851195 28.902688065091994 L-12.005077065314254 28.712340359871117 L-12.759477800903927 27.695222405365076 L-13.813698797541416 26.273872911506064 L-15.389427806202924 24.149402201793826 z"/>
<path fill="#000000" stroke="#000000" d="M15.556349186104041 10.45741923920692 L8.514706370123246 -7.212610585517587 L8.419035512031973 7.082806682035806 z"/>
<path fill="#000000" stroke="#000000" d="M20.3253497152483 27.42274221849709 L15.73312588140068 18.466316825045293 L20.55631959837612 13.358460582039848 z"/>
<path fill="#000000" stroke="#000000" d="M-20.55631959837613 1.3082060846268373 L-20.325349715248304 15.507883839032537 L-15.556349186104045 10.457419239206923 z"/>
<path fill="#000000" stroke="#000000" d="M20.556319598376124 13.35846058203985 L15.733125881400682 18.466316825045293 L8.514706370123244 21.879277252184263 L-2.724839128102861e-15 23.077749576988158 L-8.51470637012325 21.879277252184263 L-15.733125881400683 18.466316825045293 L-20.55631959837613 13.358460582039838 L-22.25 7.333333333333338 L-20.55631959837613 1.3082060846268373 L-15.733125881400682 -3.799650158378615 L-8.514706370123248 -7.212610585517586 L0 -8.41108291032148 L8.514706370123248 -7.212610585517586 L15.733125881400682 -3.799650158378615 L20.55631959837613 1.3082060846268373 L22.25 7.333333333333338 M-6.869169039401743 -2.5436200010427434 L-8.586337291214441 -1.7049020946796336 L-9.922465253436933 -1.052296011422808 L-11.063184756112973 -0.4951334433273127 L-11.863895358511954 -0.10404170299383894 L-12.03088238696775 0.12109793009419795 L-12.569001848050148 0.846615469665794 L-12.817354141464316 1.1814555152244153 L-13.916392090048141 2.6632292959913966 L-15.389427806202924 4.649244160304326 L-15.389427806202924 5.722879829515931 L-15.389427806202924 10.017422506362356 L-14.684321316664729 10.968079679021987 L-11.86389535851195 14.77070836966052 L-10.615213778734397 15.380602944172747 L-10.297940847168105 15.535568823974018 L-5.6204874596241865 17.820181242221647 L-4.114288691289974 17.949593721592116 L-2.942937282555707 18.050236142237594 L1.9105063820468737 18.467243639073992 L3.3291703527752645 18.086527183868373 L4.609008038273863 17.743066521643044 L9.003826235688829 16.563661363045895 L10.009956589871738 15.760033525021138 L10.901858610246354 15.047643436218324 L14.03447800660338 12.5455221729221 L14.397582405282703 11.503084405004346 L14.713564043280648 10.595931545893775 L15.85 7.333333333333338 L15.486895601320674 6.290895565415586 L15.122301358563165 5.244180598595653 L14.034478006603377 2.1211444937445765 L13.028347652420464 1.3175166557198168 L11.40383032007218 0.01996376289509116 L9.003826235688818 -1.8969946963792228 L7.585162264960427 -2.277711151584841 L1.9139599697552645 -3.799650158378615 L1.910506382046869 -3.800576972407315 L1.899719430469299 -3.799650158378615 L0.4043076137126572 -3.6711644930368457 L-5.62048745962419 -3.15351457555497 L-6.855818884237343 -2.5501406283471955 z"/>
</svg>